<svg width="32" height="32" viewBox="0 0 32 32" fill="none" xmlns="http://www.w3.org/2000/svg">
  <!-- Tribal logo - based on user provided image -->
  <g transform="translate(0, 0)">
    <circle cx="16" cy="16" r="16" fill="black" />
    <!-- Center crescent moon design -->
    <path d="M16 6C19 6 21 8 21 11C21 14 19 16 16 16C13 16 11 14 11 11C11 8 13 6 16 6Z" fill="none" stroke="white" stroke-width="1.5" />
    <!-- Center arrow element -->
    <path d="M16 16L12 24L16 21L20 24L16 16Z" fill="white" />
    <!-- Flowing wing elements -->
    <path d="M6 8C10 18 12 21 16 24C20 21 22 18 26 8" stroke="black" stroke-width="6" />
    <path d="M6 8C10 18 12 21 16 24C20 21 22 18 26 8" stroke="white" stroke-width="3" />
    <path d="M2 12C7 23 12 28 16 30C20 28 25 23 30 12" stroke="black" stroke-width="8" />
    <path d="M2 12C7 23 12 28 16 30C20 28 25 23 30 12" stroke="white" stroke-width="4" />
  </g>
</svg> 