<svg width="200" height="200" viewBox="0 0 200 200" fill="none" xmlns="http://www.w3.org/2000/svg">
  <!-- Circular gear-like background -->
  <circle cx="100" cy="100" r="90" fill="black" />
  
  <!-- Gradient ring -->
  <circle cx="100" cy="100" r="85" stroke="url(#tribify-gradient)" stroke-width="10" fill="none" />
  
  <!-- Center circle -->
  <circle cx="100" cy="100" r="60" fill="#111111" stroke="white" stroke-width="2" />
  
  <!-- Gear teeth -->
  <path d="M100 10 L105 25 L95 25 Z" fill="url(#tribify-gradient)" />
  <path d="M152 25 L145 39 L135 34 Z" fill="url(#tribify-gradient)" />
  <path d="M175 75 L160 80 L160 70 Z" fill="url(#tribify-gradient)" />
  <path d="M175 125 L160 120 L160 130 Z" fill="url(#tribify-gradient)" />
  <path d="M152 175 L135 166 L145 161 Z" fill="url(#tribify-gradient)" />
  <path d="M100 190 L95 175 L105 175 Z" fill="url(#tribify-gradient)" />
  <path d="M48 175 L55 161 L65 166 Z" fill="url(#tribify-gradient)" />
  <path d="M25 125 L40 120 L40 130 Z" fill="url(#tribify-gradient)" />
  <path d="M25 75 L40 80 L40 70 Z" fill="url(#tribify-gradient)" />
  <path d="M48 25 L65 34 L55 39 Z" fill="url(#tribify-gradient)" />
  
  <!-- Text "Tribify.AI" -->
  <text x="100" y="95" font-family="Arial, sans-serif" font-weight="bold" font-size="20" fill="white" text-anchor="middle">TRIBIFY</text>
  <text x="100" y="120" font-family="Arial, sans-serif" font-weight="bold" font-size="16" fill="white" text-anchor="middle">.AI</text>
  
  <!-- Gradient definition -->
  <defs>
    <linearGradient id="tribify-gradient" x1="0%" y1="0%" x2="100%" y2="0%">
      <stop offset="0%" stop-color="#00E5FF" />
      <stop offset="50%" stop-color="#FF6B00" />
      <stop offset="100%" stop-color="#FF00A8" />
    </linearGradient>
  </defs>
</svg> 