<svg width="360" height="640" viewBox="0 0 360 640" fill="none" xmlns="http://www.w3.org/2000/svg">
  <!-- Phone frame -->
  <rect width="360" height="640" rx="32" fill="url(#paint0_linear)" />
  <rect x="12" y="12" width="336" height="616" rx="24" fill="#111827" />

  <!-- Status bar -->
  <rect x="18" y="18" width="324" height="40" rx="2" fill="#111827" />
  <text x="80" y="43" font-family="Arial" font-size="18" font-weight="bold" fill="white">12:10</text>
  <text x="280" y="43" font-family="Arial" font-size="14" fill="white">4G 38%</text>

  <!-- Wallet header -->
  <rect x="18" y="58" width="324" height="80" rx="10" fill="#111827" />
  <circle cx="55" cy="98" r="22" fill="#374151" />
  <text x="55" y="104" font-family="Arial" font-size="18" font-weight="bold" fill="white" text-anchor="middle">M</text>
  <text x="150" y="98" font-family="Arial" font-size="22" font-weight="bold" fill="white">Main Wallet</text>
  <text x="325" y="98" font-family="Arial" font-size="22" fill="#6B7280" text-anchor="end">⋮</text>
  
  <!-- Balance section -->
  <text x="42" y="150" font-family="Arial" font-size="16" fill="#9CA3AF">BALANCE</text>
  <text x="42" y="200" font-family="Arial" font-size="40" font-weight="bold" fill="white">$1,695.38</text>
  <text x="42" y="230" font-family="Arial" font-size="16" fill="#10B981">+$4.86 +0.28%</text>

  <!-- Action buttons -->
  <circle cx="60" cy="280" r="24" fill="#374151" />
  <text x="60" y="285" font-family="Arial" font-size="20" fill="white" text-anchor="middle">↓</text>
  <text x="60" y="315" font-family="Arial" font-size="14" fill="white" text-anchor="middle">Receive</text>
  
  <circle cx="130" cy="280" r="24" fill="#374151" />
  <text x="130" y="285" font-family="Arial" font-size="20" fill="white" text-anchor="middle">↔</text>
  <text x="130" y="315" font-family="Arial" font-size="14" fill="white" text-anchor="middle">Swap</text>
  
  <circle cx="200" cy="280" r="24" fill="#374151" />
  <text x="200" y="285" font-family="Arial" font-size="20" fill="white" text-anchor="middle">☘</text>
  <text x="200" y="315" font-family="Arial" font-size="14" fill="white" text-anchor="middle">Stake</text>
  
  <circle cx="270" cy="280" r="24" fill="#374151" />
  <text x="270" y="285" font-family="Arial" font-size="20" fill="white" text-anchor="middle">→</text>
  <text x="270" y="315" font-family="Arial" font-size="14" fill="white" text-anchor="middle">Send</text>

  <!-- Tokens section -->
  <text x="42" y="360" font-family="Arial" font-size="18" fill="white">Tokens</text>
  <text x="130" y="360" font-family="Arial" font-size="18" fill="#6B7280">$1,659.92</text>
  <text x="320" y="360" font-family="Arial" font-size="16" fill="#6B7280" text-anchor="end">View all ›</text>
  
  <!-- Token list (each token is a chat group) -->
  <!-- Solana -->
  <rect x="30" y="380" width="300" height="60" rx="4" fill="#111827" />
  <circle cx="55" cy="410" r="16" fill="#1E40AF" />
  <text x="55" y="415" font-family="Arial" font-size="10" fill="white" text-anchor="middle">SOL</text>
  <text x="85" y="405" font-family="Arial" font-size="18" font-weight="bold" fill="white">Solana</text>
  <text x="85" y="425" font-family="Arial" font-size="14" fill="#FF4B55">$125.13 -0.33%</text>
  <text x="315" y="415" font-family="Arial" font-size="18" font-weight="bold" fill="white" text-anchor="end">$9.81</text>
  <rect x="30" y="380" width="300" height="60" rx="4" fill="#111827" fill-opacity="0.3" stroke="#374151" stroke-width="1" />
  
  <!-- Unicorn (with new message indicator) -->
  <rect x="30" y="445" width="300" height="60" rx="4" fill="#111827" />
  <circle cx="55" cy="475" r="16" fill="#DE24C8" />
  <text x="55" y="480" font-family="Arial" font-size="14" fill="white" text-anchor="middle">🦄</text>
  <text x="85" y="470" font-family="Arial" font-size="18" font-weight="bold" fill="white">Unicorn</text>
  <text x="85" y="490" font-family="Arial" font-size="14" fill="#FF4B55">$0.0736 -6.19%</text>
  <text x="315" y="475" font-family="Arial" font-size="18" font-weight="bold" fill="white" text-anchor="end">$354.27</text>
  <circle cx="75" cy="458" r="8" fill="#10B981" />
  <text x="75" y="462" font-family="Arial" font-size="10" fill="white" text-anchor="middle">3</text>
  <rect x="30" y="445" width="300" height="60" rx="4" fill="#111827" fill-opacity="0.3" stroke="#374151" stroke-width="1" />
  
  <!-- DOGE -->
  <rect x="30" y="510" width="300" height="60" rx="4" fill="#111827" />
  <circle cx="55" cy="540" r="16" fill="#F7931A" />
  <text x="55" y="545" font-family="Arial" font-size="12" fill="white" text-anchor="middle">DOGE</text>
  <text x="85" y="535" font-family="Arial" font-size="18" font-weight="bold" fill="white">Department of Go...</text>
  <text x="85" y="555" font-family="Arial" font-size="14" fill="#10B981">$0.13 +0.02%</text>
  <text x="315" y="540" font-family="Arial" font-size="18" font-weight="bold" fill="white" text-anchor="end">$318.22</text>
  <rect x="30" y="510" width="300" height="60" rx="4" fill="#111827" fill-opacity="0.3" stroke="#374151" stroke-width="1" />

  <!-- Bozo -->
  <rect x="30" y="575" width="300" height="60" rx="4" fill="#111827" />
  <circle cx="55" cy="605" r="16" fill="#F97316" />
  <text x="55" y="610" font-family="Arial" font-size="14" fill="white" text-anchor="middle">🤡</text>
  <text x="85" y="600" font-family="Arial" font-size="18" font-weight="bold" fill="white">bozo</text>
  <text x="85" y="620" font-family="Arial" font-size="14" fill="#10B981">$0.00374 +5.04%</text>
  <text x="315" y="605" font-family="Arial" font-size="18" font-weight="bold" fill="white" text-anchor="end">$142.29</text>
  <rect x="30" y="575" width="300" height="60" rx="4" fill="#111827" fill-opacity="0.3" stroke="#374151" stroke-width="1" />

  <!-- Navigation bar -->
  <rect x="18" y="588" width="324" height="60" rx="0" fill="#111827" />
  <text x="55" y="625" font-family="Arial" font-size="12" fill="white" text-anchor="middle">Portfolio</text>
  <text x="125" y="625" font-family="Arial" font-size="12" fill="#6B7280" text-anchor="middle">Market</text>
  <text x="195" y="625" font-family="Arial" font-size="12" fill="#6B7280" text-anchor="middle">Swap</text>
  <text x="265" y="625" font-family="Arial" font-size="12" fill="#6B7280" text-anchor="middle">Explore</text>
  <text x="325" y="625" font-family="Arial" font-size="12" fill="#6B7280" text-anchor="middle">Settings</text>

  <!-- Linear gradients -->
  <defs>
    <linearGradient id="paint0_linear" x1="0" y1="0" x2="360" y2="640" gradientUnits="userSpaceOnUse">
      <stop stop-color="#111827" />
      <stop offset="1" stop-color="#374151" />
    </linearGradient>
  </defs>
</svg> 