<svg width="100" height="100" viewBox="0 0 100 100" fill="none" xmlns="http://www.w3.org/2000/svg">
  <rect width="100" height="100" rx="50" fill="url(#paint0_linear)" />
  <path d="M32 36C32 33.7909 33.7909 32 36 32H64C66.2091 32 68 33.7909 68 36V64C68 66.2091 66.2091 68 64 68H36C33.7909 68 32 66.2091 32 64V36Z" fill="white" fill-opacity="0.2"/>
  <path d="M50 30C43.3696 30 37.0107 32.6339 32.3223 37.3223C27.634 42.0107 25 48.3696 25 55C25 61.6304 27.634 67.9893 32.3223 72.6777C37.0107 77.3661 43.3696 80 50 80" stroke="white" stroke-width="6" stroke-linecap="round"/>
  <path d="M50 30C56.6304 30 62.9893 32.6339 67.6777 37.3223C72.366 42.0107 75 48.3696 75 55C75 61.6304 72.366 67.9893 67.6777 72.6777C62.9893 77.3661 56.6304 80 50 80" stroke="white" stroke-width="6" stroke-linecap="round"/>
  <path d="M44 50L50 56L56 50" stroke="white" stroke-width="4" stroke-linecap="round" stroke-linejoin="round"/>
  <defs>
    <linearGradient id="paint0_linear" x1="0" y1="0" x2="100" y2="100" gradientUnits="userSpaceOnUse">
      <stop stop-color="#0EA5E9"/>
      <stop offset="1" stop-color="#A855F7"/>
    </linearGradient>
  </defs>
</svg> 