<svg width="32" height="32" viewBox="0 0 32 32" fill="none" xmlns="http://www.w3.org/2000/svg">
  <!-- Tribal logo - based on user provided image -->
  <g transform="translate(0, 0)">
    <circle cx="16" cy="16" r="15" fill="black" />
    <path d="M16 8C18.2091 8 20 9.79086 20 12C20 14.2091 18.2091 16 16 16C13.7909 16 12 14.2091 12 12C12 9.79086 13.7909 8 16 8Z" fill="none" stroke="white" stroke-width="1.5" />
    <path d="M16 16L13 22L16 20L19 22L16 16Z" fill="white" />
    <path d="M6 4C7.5 8 8 14 16 18C24 14 24.5 8 26 4" stroke="black" stroke-width="8" />
    <path d="M6 4C7.5 8 8 14 16 18C24 14 24.5 8 26 4" stroke="white" stroke-width="4" />
    <path d="M2 11C4 17 9 25 16 30C23 25 28 17 30 11" stroke="black" stroke-width="8" />
    <path d="M2 11C4 17 9 25 16 30C23 25 28 17 30 11" stroke="white" stroke-width="4" />
  </g>
</svg> 