<svg width="120" height="40" viewBox="0 0 120 40" fill="none" xmlns="http://www.w3.org/2000/svg">
  <!-- Tribal logo - based on user provided image -->
  <g transform="translate(10, 0)">
    <circle cx="20" cy="20" r="16" fill="black" />
    <path d="M20 12C22.2091 12 24 13.7909 24 16C24 18.2091 22.2091 20 20 20C17.7909 20 16 18.2091 16 16C16 13.7909 17.7909 12 20 12Z" fill="none" stroke="white" stroke-width="1.5" />
    <path d="M20 20L17 26L20 24L23 26L20 20Z" fill="white" />
    <path d="M10 8C11.5 12 12 18 20 22C28 18 28.5 12 30 8" stroke="black" stroke-width="8" />
    <path d="M10 8C11.5 12 12 18 20 22C28 18 28.5 12 30 8" stroke="white" stroke-width="4" />
    <path d="M6 15C8 21 13 29 20 34C27 29 32 21 34 15" stroke="black" stroke-width="8" />
    <path d="M6 15C8 21 13 29 20 34C27 29 32 21 34 15" stroke="white" stroke-width="4" />
  </g>
  
  <!-- Text part -->
  <path d="M47 27V13H50.625L55.65 22.25H56.05L55.65 13H59.15V27H55.55L50.5 17.75H50.1L50.5 27H47Z" fill="#111827"/>
  <path d="M65.4711 27.175C63.8211 27.175 62.5377 26.7083 61.6211 25.775C60.7044 24.8417 60.2461 23.475 60.2461 21.675V13H63.7461V21.625C63.7461 22.375 63.9127 22.9333 64.2461 23.3C64.5877 23.6667 65.0627 23.85 65.6711 23.85C66.2794 23.85 66.7544 23.6667 67.0961 23.3C67.4377 22.9333 67.6086 22.375 67.6086 21.625V13H71.1086V21.675C71.1086 23.475 70.6461 24.8417 69.7211 25.775C68.8044 26.7083 67.321 27.175 65.4711 27.175Z" fill="#111827"/>
  <path d="M83.872 13V16.175H80.647V27H77.147V16.175H73.922V13H83.872Z" fill="#111827"/>
  <path d="M84.4406 27L89.3656 13H93.7406L98.6656 27H94.9156L94.1156 24.775H88.9906L88.1906 27H84.4406ZM89.9156 21.725H93.1906L91.5656 16.95H91.5406L89.9156 21.725Z" fill="#111827"/>
  <path d="M99.8961 27V13H107.721C108.838 13 109.763 13.2667 110.496 13.8C111.23 14.325 111.596 15.0667 111.596 16.025C111.596 16.7417 111.413 17.325 111.046 17.775C110.688 18.225 110.23 18.525 109.671 18.675V18.7C110.38 18.825 110.938 19.1333 111.346 19.625C111.755 20.1167 111.959 20.725 111.959 21.45C111.959 22.5167 111.563 23.3583 110.771 23.975C109.988 24.5917 108.896 24.9 107.496 24.9H106.271V27H99.8961ZM103.396 18.325H105.821C106.33 18.325 106.713 18.2333 106.971 18.05C107.23 17.8667 107.359 17.5917 107.359 17.225C107.359 16.8583 107.221 16.5833 106.946 16.4C106.68 16.2083 106.288 16.1125 105.771 16.1125H103.396V18.325ZM103.396 23.825H106.096C106.646 23.825 107.055 23.725 107.321 23.525C107.596 23.325 107.734 23.025 107.734 22.625C107.734 22.225 107.596 21.925 107.321 21.725C107.046 21.525 106.638 21.425 106.096 21.425H103.396V23.825Z" fill="#111827"/>
</svg> 